<svg width="80" height="32" viewBox="0 0 80 32" fill="none" xmlns="http://www.w3.org/2000/svg">
<path d="M7.82834 11.3334C7.86568 11.7421 8.12364 12.0534 8.6322 12.141C9.74444 12.3147 11.4269 12.4493 13.773 12.4175C16.341 12.3826 18.7453 11.9723 20.9251 11.3761C22.2836 11.0114 23.7476 11.4007 24.1479 12.8433C24.481 14.0035 24.0549 15.2999 22.9527 15.85C20.4962 17.0795 16.5363 17.3535 13.5883 17.425C10.6398 17.465 7.24359 17.2278 5.3631 16.5293C4.43849 16.1641 3.18947 15.2682 2.88464 13.8558C2.44172 11.6269 2.46396 8.63612 2.71896 6.42919C2.88925 4.97888 4.20608 3.89075 5.06209 3.87913L21.3579 3.65803C22.626 3.64082 23.3708 4.76394 23.3886 6.0543C23.4033 7.12436 22.8209 8.58027 21.4259 8.59919L8.55413 8.77384C8.07858 8.78029 7.82798 9.00404 7.79974 9.25625C7.7437 9.79214 7.7554 10.6419 7.82834 11.3334ZM2.29628 24.0942C1.08893 23.9217 -0.097111 22.9935 0.00630483 21.2922C0.111021 19.6854 1.68625 18.9401 2.82975 19.0819C7.75035 19.4874 19.1333 19.4273 23.9762 18.795C25.2422 18.6205 26.7101 19.2931 26.8925 21.0219C27.0748 22.7507 25.7862 23.5866 24.6792 23.7905C23.1287 24.0319 19.8333 24.2025 16.1561 24.2839L16.2358 30.0748C16.2518 31.2393 14.7717 31.9834 13.567 31.9997C12.3939 32.0157 10.9256 31.3116 10.9095 30.1471L10.8302 24.3877C7.27898 24.4044 4.01175 24.3228 2.29628 24.0942Z" fill="#00B4B7"/>
<path d="M31.7908 5.09039C34.2637 5.05684 34.9173 6.46449 34.9381 7.97516L34.968 10.1468C35.0681 17.4169 33.8766 23.0047 30.4303 26.0419C29.5218 26.8412 27.5574 26.9623 26.7449 25.5253C26.0952 24.4009 26.4275 23.2002 27.2718 22.3388C30.2425 19.3081 30.0389 16.0371 30.0321 10.9377C30.0274 10.5915 29.9253 10.0893 28.9742 10.1022L28.3084 10.1112C27.072 10.128 26.3867 8.72076 26.3719 7.65069C26.3576 6.61211 26.9718 5.15577 28.2399 5.13857L31.7908 5.09039ZM39.2095 4.98973C41.7458 4.95532 42.3994 6.36297 42.4197 7.84217L42.454 10.3285C42.5601 18.0392 41.2145 23.9439 38.3055 26.8479C37.3048 27.8688 35.3991 27.6428 34.5883 26.3317C34.0046 25.3953 34.1463 24.1657 34.9897 23.2414C37.8961 20.1486 37.548 15.589 37.5112 10.6159C37.5047 10.1438 37.4074 9.98775 37.027 9.99291C35.9173 10.008 35.4223 8.59816 35.4075 7.5281C35.3932 6.48951 36.1025 5.03189 37.2755 5.01597L39.2095 4.98973ZM49.9836 18.2848L48.4618 18.3054C48.4856 22.3343 48.4099 26.0498 48.2726 27.5941C48.0997 28.8555 47.0361 29.9088 45.6711 29.8014C44.1159 29.6966 43.4327 28.4467 43.4471 27.1874C43.7934 22.398 43.7273 10.689 43.1533 5.84909C42.9766 4.5294 43.8791 3.2895 45.2085 3.11408C46.6013 2.93779 47.7561 3.89795 47.9645 5.2172C48.209 6.85076 48.3465 9.93376 48.425 13.3323L49.9151 13.3121C49.8414 10.2597 49.7073 7.42851 49.4919 5.6057C49.3152 4.28601 50.2177 3.04611 51.5471 2.87068C52.9399 2.69439 54.0947 3.65455 54.3031 4.97381C54.9331 9.27778 54.9162 24.1672 54.6155 27.6654C54.4426 28.9269 53.379 29.9801 52.014 29.8727C50.4588 29.7679 49.7757 28.518 49.7901 27.2587C49.9204 25.2108 50.0009 21.8416 49.9836 18.2848Z" fill="#00B4B7"/>
<path d="M64.2154 22.4671C64.6276 22.4616 65.4827 22.387 65.9566 22.2547C66.3674 22.1546 66.5555 21.9947 66.5811 21.5537C66.8127 17.6472 66.4382 8.86986 66.1941 7.26777C66.0192 6.07398 66.8231 4.58359 68.5012 4.40343C70.2111 4.22284 71.3033 5.2468 71.4787 6.47207C71.8283 8.8282 72.148 20.5338 71.678 23.2473C71.4425 24.5726 70.8223 25.5883 69.7839 26.169C68.6204 26.8773 66.6934 27.4071 64.2839 27.4398C61.9378 27.4716 59.9335 26.9952 58.751 26.3187C57.6969 25.7664 57.049 24.7679 56.7772 23.4495C56.2326 20.7497 56.2617 9.03941 56.5145 6.67511C56.6878 5.44511 57.8783 4.39017 59.4022 4.52689C61.1485 4.69206 61.9289 6.09799 61.8186 7.29566C61.7009 7.95831 61.6305 9.75352 61.5965 11.8945L63.7524 11.8653C64.7352 11.8519 65.4496 13.0699 65.4665 14.2973C65.4812 15.3674 65.0573 16.8211 63.8208 16.8379L61.6333 16.8676C61.6593 18.7559 61.7152 20.5179 61.8255 21.6182C61.862 21.9639 62.0235 22.1821 62.4057 22.3028C62.883 22.4223 63.518 22.4766 64.2154 22.4671ZM79.476 4.63226C80.1377 8.9358 80.089 23.8257 79.7884 27.3238C79.6155 28.5853 78.2982 29.642 76.9332 29.5346C75.3776 29.3983 74.4413 28.1834 74.4873 26.9236C74.8336 22.1342 74.7315 10.1109 74.1892 5.2706C73.9808 3.95134 75.1999 2.67567 76.4663 2.53258C77.9225 2.35543 79.2675 3.313 79.476 4.63226Z" fill="#00B4B7"/>
<path d="M12.9047 9.71111L13.6455 7.93595H11.9522L12.9047 9.71111Z" fill="#00B4B7"/>
<path d="M15.6526 9.71111L16.3934 7.93595H14.7001L15.6526 9.71111Z" fill="#00B4B7"/>
<path d="M12.4201 6.19015C12.4201 6.47987 12.1835 6.71473 11.8916 6.71473C11.5998 6.71473 11.3632 6.47987 11.3632 6.19015C11.3632 5.90042 11.5998 5.66556 11.8916 5.66556C12.1835 5.66556 12.4201 5.90042 12.4201 6.19015Z" fill="white"/>
<path d="M16.6477 6.19015C16.6477 6.47987 16.4111 6.71473 16.1192 6.71473C15.8274 6.71473 15.5908 6.47987 15.5908 6.19015C15.5908 5.90042 15.8274 5.66556 16.1192 5.66556C16.4111 5.66556 16.6477 5.90042 16.6477 6.19015Z" fill="white"/>
<path d="M12.9047 9.71111L13.6455 7.93595H11.9522L12.9047 9.71111Z" fill="#00B4B7"/>
<path d="M15.6526 9.71111L16.3934 7.93595H14.7001L15.6526 9.71111Z" fill="#00B4B7"/>
<path d="M13.7941 0L15.8992 3.77704H11.6889L13.7941 0Z" fill="#00B4B7"/>
</svg>
