<svg width="56" height="56" viewBox="0 0 56 56" fill="none" xmlns="http://www.w3.org/2000/svg">
<path opacity="0.5" d="M29.9413 50.869C37.2353 49.4083 46.6667 44.1607 46.6667 30.5923C46.6667 18.2467 37.6297 10.024 31.1313 6.24633C29.687 5.40633 28 6.51 28 8.17833V12.4437C28 15.8083 26.586 21.9497 22.6567 24.5047C20.65 25.809 18.48 23.856 18.2373 21.476L18.0367 19.5207C17.8033 17.248 15.4887 15.869 13.6733 17.255C10.409 19.74 7 24.1033 7 30.59C7 47.1823 19.341 51.3333 25.5103 51.3333C25.8712 51.3333 26.2477 51.3217 26.6397 51.2983C27.6803 51.1677 26.6397 51.5293 29.9413 50.8667" fill="#00B4B7" fill-opacity="0.4"/>
<path d="M17 40.4391C17 48.251 23.333 50.6661 27.251 51C28.589 50.833 27.251 51.2952 31.496 50.4484C34.613 49.3542 38 46.5455 38 40.4391C38 36.572 35.543 34.1837 33.62 33.0656C33.032 32.7227 32.348 33.1551 32.297 33.8289C32.129 35.9697 30.059 37.6752 28.652 36.0472C27.407 34.6101 26.882 32.5081 26.882 31.1634V29.4042C26.882 28.3487 25.811 27.6451 24.893 28.1877C21.485 30.1943 17 34.3269 17 40.4391Z" fill="#00B4B7" fill-opacity="0.6"/>
</svg>
