<svg width="100" height="16" viewBox="0 0 100 16" fill="none" xmlns="http://www.w3.org/2000/svg">
<rect x="96.2457" y="4.80798" width="3.75427" height="10.6937" fill="#BDBDBD"/>
<ellipse cx="7.02087" cy="8.06523" rx="1.87713" ry="1.88884" fill="#BDBDBD"/>
<ellipse cx="98.1228" cy="1.88884" rx="1.87713" ry="1.88884" fill="#BDBDBD"/>
<rect y="0.343384" width="7.67918" height="3.77767" fill="#BDBDBD"/>
<rect y="11.8481" width="7.71558" height="3.77767" fill="#BDBDBD"/>
<path d="M7.50861 0.343384C11.7496 0.343406 15.1873 3.76488 15.1873 7.98499C15.1871 12.2049 11.7495 15.6256 7.50861 15.6256C7.50861 15.6076 7.50864 14.1216 7.50861 11.8453C7.53687 11.846 7.56516 11.8483 7.59357 11.8483C9.714 11.8483 11.4332 10.1186 11.4334 7.98499C11.4334 5.85122 9.71411 4.12073 7.59357 4.12073C7.56517 4.12073 7.53686 4.12206 7.50861 4.12268C7.50864 1.88496 7.50861 0.343384 7.50861 0.343384Z" fill="#BDBDBD"/>
<ellipse cx="58.6977" cy="8.38949" rx="1.88884" ry="1.87713" transform="rotate(-90 58.6977 8.38949)" fill="#BDBDBD"/>
<rect x="51.0239" y="15.4541" width="7.72705" height="3.75427" transform="rotate(-90 51.0239 15.4541)" fill="#BDBDBD"/>
<rect x="62.4573" y="15.4541" width="7.76367" height="3.75427" transform="rotate(-90 62.4573 15.4541)" fill="#BDBDBD"/>
<path d="M51.0238 7.89868C51.0238 3.63126 54.4237 0.172178 58.6176 0.172119C62.8115 0.172119 66.2113 3.63123 66.2113 7.89868C66.1909 7.89868 64.7147 7.89865 62.4545 7.89868C62.4551 7.87015 62.4574 7.84142 62.4574 7.81274C62.4573 5.67905 60.7381 3.94946 58.6176 3.94946C56.4971 3.94951 54.7778 5.67908 54.7777 7.81274C54.7777 7.84141 54.7791 7.87016 54.7797 7.89868C52.5558 7.89865 51.0238 7.89868 51.0238 7.89868Z" fill="#BDBDBD"/>
<rect x="32.4232" y="0.686768" width="7.72705" height="3.75427" transform="rotate(90 32.4232 0.686768)" fill="#BDBDBD"/>
<rect x="20.9898" y="0.686768" width="7.76367" height="3.75427" transform="rotate(90 20.9898 0.686768)" fill="#BDBDBD"/>
<path d="M32.4233 8.24219C32.4233 12.5096 29.0234 15.9687 24.8295 15.9688C20.6356 15.9688 17.2358 12.5096 17.2358 8.24219C17.2562 8.24219 18.7324 8.24222 20.9926 8.24219C20.992 8.27075 20.9897 8.29942 20.9897 8.32812C20.9897 10.4619 22.709 12.1914 24.8295 12.1914C26.95 12.1913 28.6693 10.4618 28.6694 8.32812C28.6694 8.29942 28.668 8.27074 28.6674 8.24219C30.8913 8.24222 32.4233 8.24219 32.4233 8.24219Z" fill="#BDBDBD"/>
<rect x="67.9181" y="15.4542" width="7.72705" height="3.75427" transform="rotate(-90 67.9181 15.4542)" fill="#BDBDBD"/>
<rect x="79.3516" y="15.4542" width="7.76367" height="3.75427" transform="rotate(-90 79.3516 15.4542)" fill="#BDBDBD"/>
<path d="M67.9182 7.8988C67.9182 3.63139 71.318 0.1723 75.5119 0.172241C79.7059 0.172241 83.1056 3.63135 83.1057 7.8988C83.0852 7.8988 81.609 7.89877 79.3488 7.8988C79.3494 7.87026 79.3518 7.84156 79.3518 7.81287C79.3517 5.67916 77.6324 3.94958 75.5119 3.94958C73.3914 3.94963 71.6721 5.67918 71.6721 7.81287C71.6721 7.84155 71.6734 7.87027 71.674 7.8988C69.4502 7.89877 67.9182 7.8988 67.9182 7.8988Z" fill="#BDBDBD"/>
<rect x="79.3516" y="15.4542" width="7.72705" height="3.75427" transform="rotate(-90 79.3516 15.4542)" fill="#BDBDBD"/>
<rect x="90.785" y="15.4542" width="7.76367" height="3.75427" transform="rotate(-90 90.785 15.4542)" fill="#BDBDBD"/>
<path d="M79.3515 7.8988C79.3515 3.63139 82.7514 0.1723 86.9453 0.172241C91.1392 0.172241 94.539 3.63135 94.539 7.8988C94.5186 7.8988 93.0424 7.89877 90.7822 7.8988C90.7828 7.87026 90.7851 7.84156 90.7851 7.81287C90.785 5.67916 89.0658 3.94958 86.9453 3.94958C84.8248 3.94964 83.1055 5.67919 83.1054 7.81287C83.1054 7.84155 83.1068 7.87027 83.1074 7.8988C80.8835 7.89877 79.3515 7.8988 79.3515 7.8988Z" fill="#BDBDBD"/>
<rect x="49.3174" y="15.6257" width="7.67918" height="3.77767" transform="rotate(-180 49.3174 15.6257)" fill="#BDBDBD"/>
<rect x="49.3174" y="4.12109" width="7.71558" height="3.77767" transform="rotate(-180 49.3174 4.12109)" fill="#BDBDBD"/>
<path d="M41.8088 15.6257C37.5678 15.6257 34.1301 12.2042 34.1301 7.98413C34.1303 3.76421 37.568 0.343529 41.8088 0.343506C41.8088 0.361536 41.8088 1.84752 41.8088 4.12378C41.7806 4.12316 41.7523 4.12085 41.7239 4.12085C39.6035 4.12085 37.8843 5.85059 37.884 7.98413C37.884 10.1179 39.6033 11.8484 41.7239 11.8484C41.7523 11.8484 41.7806 11.8471 41.8088 11.8464C41.8088 14.0842 41.8088 15.6257 41.8088 15.6257Z" fill="#BDBDBD"/>
</svg>
