<svg width="184" height="184" viewBox="0 0 184 184" fill="none" xmlns="http://www.w3.org/2000/svg">
<path d="M184 92C184 142.81 142.81 184 92 184C40.02 183.08 0 142.81 0 92C0 41.1898 41.1898 0 92 0C142.81 0 184 41.1898 184 92Z" fill="#D9D9D9"/>
<path d="M184 92C184 142.81 142.81 184 92 184C40.02 183.08 0 142.81 0 92C0 41.1898 41.1898 0 92 0C142.81 0 184 41.1898 184 92Z" fill="#D9D9D9"/>
<path d="M138.46 171.424C122.36 179.4 117.3 182.62 92 184C70.84 182.16 68.08 182.16 45.54 171.424C45.54 144.132 66.5688 123.28 91.858 123.28C117.147 123.28 138.46 144.132 138.46 171.424Z" fill="white"/>
<path d="M132.719 86.4522C132.719 108.769 114.471 115.796 91.9602 115.796C69.4498 115.796 51.2015 108.769 51.2015 86.4522C51.2015 64.1354 69.4498 46.0442 91.9602 46.0442C114.471 46.0442 132.719 64.1354 132.719 86.4522Z" fill="white"/>
<path d="M110.869 96.4673C110.869 103.727 102.591 106.013 92.3804 106.013C82.1695 106.013 73.8919 103.727 73.8919 96.4673C73.8919 89.2076 82.1695 86.3827 92.3804 86.3827C102.591 86.3827 110.869 89.2076 110.869 96.4673Z" fill="#D9D9D9"/>
<path d="M56.6779 47.1895C56.3929 45.6232 57.9582 44.3778 59.282 45.1177L71.4218 51.9018C72.571 52.5441 72.6782 54.2507 71.6219 55.0911L62.0959 62.6701C61.0397 63.5104 59.539 62.9125 59.2916 61.5528L56.6779 47.1895Z" fill="white"/>
<path d="M126.402 47.1895C126.687 45.6232 125.122 44.3778 123.798 45.1177L111.658 51.9018C110.509 52.5441 110.402 54.2507 111.458 55.0911L120.984 62.6701C122.04 63.5104 123.541 62.9125 123.788 61.5528L126.402 47.1895Z" fill="white"/>
<path d="M83.1009 92.0537L83.6588 84.3785L77.2688 86.4975L83.1009 92.0537Z" fill="white"/>
<path d="M100.272 92.2251L99.7137 84.5499L106.104 86.6689L100.272 92.2251Z" fill="white"/>
<path d="M78.9342 78.8192C78.9342 81.1399 77.053 83.0211 74.7323 83.0211C72.4117 83.0211 70.5304 81.1399 70.5304 78.8192C70.5304 76.4986 72.4117 74.6173 74.7323 74.6173C77.053 74.6173 78.9342 76.4986 78.9342 78.8192Z" fill="#D9D9D9"/>
<path d="M114.23 78.8192C114.23 81.1399 112.349 83.0211 110.028 83.0211C107.708 83.0211 105.827 81.1399 105.827 78.8192C105.827 76.4986 107.708 74.6173 110.028 74.6173C112.349 74.6173 114.23 76.4986 114.23 78.8192Z" fill="#D9D9D9"/>
</svg>
